<svg height="512pt" viewBox="-61 0 512 512" width="512pt" xmlns="http://www.w3.org/2000/svg"><path d="m390 75c0-41.449219-33.542969-75-75-75h-240c-41.449219 0-75 33.542969-75 75 0 36.582031 26.050781 66.648438 60 73.503906v276.074219c-17.460938 6.195313-30 22.867187-30 42.421875v45h330v-45c0-19.554688-12.539062-36.226562-30-42.421875v-276.074219c33.914062-6.851562 60-36.878906 60-73.503906zm-120 347v-242h-30v242h-30v-242h-30v242h-30v-242h-30v242h-30v-273.496094c18.007812-3.636718 33.902344-13.761718 45.003906-28.503906h119.992188c11.09375 14.730469 26.988281 24.863281 45.003906 28.503906v273.496094zm-240-347c0-24.871094 20.125-45 45-45h240c24.871094 0 45 20.125 45 45 0 24.871094-20.125 45-45 45-24.871094 0-45-20.125-45-45h-30c0 5.097656.511719 10.113281 1.496094 15h-92.992188c.984375-4.886719 1.496094-9.902344 1.496094-15h-30c0 24.871094-20.125 45-45 45-24.871094 0-45-20.125-45-45zm300 407h-270v-15c0-8.269531 6.730469-15 15-15h240c8.269531 0 15 6.730469 15 15zm0 0"/></svg>